<?xml version="1.0" encoding="UTF-8"?>
<svg id="Calque_1" data-name="Calque 1" xmlns="http://www.w3.org/2000/svg" xmlns:xlink="http://www.w3.org/1999/xlink" viewBox="0 0 231.63 190.45">
  <defs>
    <style>
      .cls-1 {
        fill: url(#Dégradé_sans_nom_4-2);
      }

      .cls-2 {
        fill: url(#Dégradé_sans_nom_4);
      }
    </style>
    <linearGradient id="Dégradé_sans_nom_4" data-name="Dégradé sans nom 4" x1="0" y1="103.48" x2="231.63" y2="103.48" gradientUnits="userSpaceOnUse">
      <stop offset="0" stop-color="#597ab0"/>
      <stop offset="1" stop-color="#d0d8e4"/>
    </linearGradient>
    <linearGradient id="Dégradé_sans_nom_4-2" data-name="Dégradé sans nom 4" x1="15.42" y1="40.32" x2="216.21" y2="40.32" xlink:href="#Dégradé_sans_nom_4"/>
  </defs>
  <path class="cls-2" d="M0,16.51v161.32c0,6.56,5.31,11.88,11.86,11.91,68.46.24,136.92.48,205.38.72,7.5.03,13.6-6.03,13.64-13.53.25-53.47.5-106.95.75-160.42-36.52,28.93-73.04,57.86-109.57,86.79-4.44,3.52-10.73,3.48-15.13-.09C71.29,74.31,35.64,45.41,0,16.51Z"/>
  <path class="cls-1" d="M15.42,0h200.78c-33.55,26.88-67.11,53.76-100.66,80.64C82.17,53.76,48.8,26.88,15.42,0Z"/>
</svg>